#tb 0: 1/25
0,          0,          0,        1,  3110400, 0xdc18cd12
0,          1,          1,        1,  3110400, 0x42f7020d
0,          2,          2,        1,  3110400, 0x6ac4421a
0,          3,          3,        1,  3110400, 0xdbf78c86
0,          4,          4,        1,  3110400, 0x123f9c50
0,          5,          5,        1,  3110400, 0x9356a73f
0,          6,          6,        1,  3110400, 0xc54a446b
0,          7,          7,        1,  3110400, 0xdfa92401
0,          8,          8,        1,  3110400, 0xd3226c6a
0,          9,          9,        1,  3110400, 0xa0bd149a
0,         10,         10,        1,  3110400, 0xc38c58cc
0,         11,         11,        1,  3110400, 0xf1871f13
0,         12,         12,        1,  3110400, 0xfdf151d5
0,         13,         13,        1,  3110400, 0x65ca7286
0,         14,         14,        1,  3110400, 0xac2d80dc
0,         15,         15,        1,  3110400, 0x3e024908
0,         16,         16,        1,  3110400, 0x22a66454
0,         17,         17,        1,  3110400, 0x83b6cac8
0,         18,         18,        1,  3110400, 0xe1bccc50
0,         19,         19,        1,  3110400, 0x76be567e
0,         20,         20,        1,  3110400, 0x743c4335
0,         21,         21,        1,  3110400, 0xd3d28565
0,         22,         22,        1,  3110400, 0x2ab3a5a2
0,         23,         23,        1,  3110400, 0x9141f68e
0,         24,         24,        1,  3110400, 0xe90fac3b
0,         25,         25,        1,  3110400, 0xdc8e496d
0,         26,         26,        1,  3110400, 0x4ea216b9
0,         27,         27,        1,  3110400, 0xd1f8a08e
0,         28,         28,        1,  3110400, 0x2b512b98
0,         29,         29,        1,  3110400, 0x6af060b6
0,         30,         30,        1,  3110400, 0x69389c02
0,         31,         31,        1,  3110400, 0x7a8cef2f
0,         32,         32,        1,  3110400, 0x8f5bd7eb
0,         33,         33,        1,  3110400, 0x3960d741
0,         34,         34,        1,  3110400, 0x86c2c23b
0,         35,         35,        1,  3110400, 0x6d0d258a
0,         36,         36,        1,  3110400, 0xaff6795b
0,         37,         37,        1,  3110400, 0x97b9cb1e
0,         38,         38,        1,  3110400, 0x5966d391
0,         39,         39,        1,  3110400, 0xb9c90726
0,         40,         40,        1,  3110400, 0x3ab5836d
0,         41,         41,        1,  3110400, 0xcc3c95e7
0,         42,         42,        1,  3110400, 0x190df1ce
0,         43,         43,        1,  3110400, 0x64e6f266
0,         44,         44,        1,  3110400, 0x98dfdcdd
0,         45,         45,        1,  3110400, 0xd8889aff
0,         46,         46,        1,  3110400, 0x969775b8
0,         47,         47,        1,  3110400, 0x8f3dec20
0,         48,         48,        1,  3110400, 0xbd2b80ca
0,         49,         49,        1,  3110400, 0x68baa6f7
